<?xml version="1.0" encoding="UTF-8" standalone="no"?>
<!DOCTYPE svg PUBLIC "-//W3C//DTD SVG 1.1//EN"
 "http://www.w3.org/Graphics/SVG/1.1/DTD/svg11.dtd">
<!-- Generated by graphviz version 14.1.5 (20260411.2331)
 -->
<!-- Title: apb_states Pages: 1 -->
<svg width="265pt" height="283pt"
 viewBox="0.00 0.00 265.00 283.00" xmlns="http://www.w3.org/2000/svg" xmlns:xlink="http://www.w3.org/1999/xlink">
<g id="graph0" class="graph" transform="scale(1 1) rotate(0) translate(4 279.46)">
<title>apb_states</title>
<polygon fill="white" stroke="none" points="-4,4 -4,-279.46 261.39,-279.46 261.39,4 -4,4"/>
<!-- IDLE -->
<g id="node1" class="node">
<title>IDLE</title>
<ellipse fill="none" stroke="black" cx="142.21" cy="-252.83" rx="48.44" ry="22.63"/>
<text xml:space="preserve" text-anchor="middle" x="142.21" y="-254.38" font-family="Helvetica,sans-Serif" font-size="11.00">IDLE</text>
<text xml:space="preserve" text-anchor="middle" x="142.21" y="-242.38" font-family="Helvetica,sans-Serif" font-size="11.00">PSELx = 0</text>
</g>
<!-- IDLE&#45;&gt;IDLE -->
<g id="edge1" class="edge">
<title>IDLE&#45;&gt;IDLE</title>
<path fill="none" stroke="black" d="M187.54,-261.42C199.55,-260.93 208.64,-258.07 208.64,-252.83 208.64,-249.39 204.73,-246.97 198.64,-245.58"/>
<polygon fill="black" stroke="black" points="199.39,-242.15 189.04,-244.41 198.55,-249.1 199.39,-242.15"/>
<text xml:space="preserve" text-anchor="middle" x="233.02" y="-248.95" font-family="Helvetica,sans-Serif" font-size="10.00">No transfer</text>
</g>
<!-- SETUP -->
<g id="node2" class="node">
<title>SETUP</title>
<ellipse fill="none" stroke="black" cx="94.21" cy="-151.84" rx="61.16" ry="31.11"/>
<text xml:space="preserve" text-anchor="middle" x="94.21" y="-159.39" font-family="Helvetica,sans-Serif" font-size="11.00">SETUP</text>
<text xml:space="preserve" text-anchor="middle" x="94.21" y="-147.39" font-family="Helvetica,sans-Serif" font-size="11.00">PSELx = 1</text>
<text xml:space="preserve" text-anchor="middle" x="94.21" y="-135.39" font-family="Helvetica,sans-Serif" font-size="11.00">PENABLE = 0</text>
</g>
<!-- IDLE&#45;&gt;SETUP -->
<g id="edge2" class="edge">
<title>IDLE&#45;&gt;SETUP</title>
<path fill="none" stroke="black" d="M131.79,-230.35C126.44,-219.31 119.74,-205.5 113.49,-192.61"/>
<polygon fill="black" stroke="black" points="116.78,-191.37 109.27,-183.9 110.48,-194.42 116.78,-191.37"/>
<text xml:space="preserve" text-anchor="middle" x="140.51" y="-202.7" font-family="Helvetica,sans-Serif" font-size="10.00">Transfer</text>
</g>
<!-- ACCESS -->
<g id="node3" class="node">
<title>ACCESS</title>
<ellipse fill="none" stroke="black" cx="117.21" cy="-31.11" rx="61.16" ry="31.11"/>
<text xml:space="preserve" text-anchor="middle" x="117.21" y="-38.66" font-family="Helvetica,sans-Serif" font-size="11.00">ACCESS</text>
<text xml:space="preserve" text-anchor="middle" x="117.21" y="-26.66" font-family="Helvetica,sans-Serif" font-size="11.00">PSELx = 1</text>
<text xml:space="preserve" text-anchor="middle" x="117.21" y="-14.66" font-family="Helvetica,sans-Serif" font-size="11.00">PENABLE = 1</text>
</g>
<!-- SETUP&#45;&gt;ACCESS -->
<g id="edge3" class="edge">
<title>SETUP&#45;&gt;ACCESS</title>
<path fill="none" stroke="black" d="M44.04,-133.8C16.05,-121.38 -10.46,-102.81 4.46,-80.23 15,-64.27 32.03,-53.58 49.7,-46.44"/>
<polygon fill="black" stroke="black" points="50.52,-49.87 58.71,-43.15 48.12,-43.29 50.52,-49.87"/>
<text xml:space="preserve" text-anchor="middle" x="49.83" y="-87.6" font-family="Helvetica,sans-Serif" font-size="10.00">(always, next PCLK)</text>
</g>
<!-- ACCESS&#45;&gt;IDLE -->
<g id="edge6" class="edge">
<title>ACCESS&#45;&gt;IDLE</title>
<path fill="none" stroke="black" d="M153.41,-56.59C160.62,-63.33 167.2,-71.29 171.21,-80.23 195.26,-133.87 178.15,-155.61 162.21,-212.2 161.44,-214.93 160.48,-217.69 159.4,-220.41"/>
<polygon fill="black" stroke="black" points="156.33,-218.7 155.4,-229.26 162.71,-221.59 156.33,-218.7"/>
<text xml:space="preserve" text-anchor="middle" x="215.78" y="-153.59" font-family="Helvetica,sans-Serif" font-size="10.00">PREADY = 1</text>
<text xml:space="preserve" text-anchor="middle" x="215.78" y="-142.34" font-family="Helvetica,sans-Serif" font-size="10.00">and no transfer</text>
</g>
<!-- ACCESS&#45;&gt;SETUP -->
<g id="edge5" class="edge">
<title>ACCESS&#45;&gt;SETUP</title>
<path fill="none" stroke="black" d="M111.35,-62.32C108.57,-76.69 105.2,-94.09 102.19,-109.64"/>
<polygon fill="black" stroke="black" points="98.82,-108.6 100.36,-119.09 105.7,-109.93 98.82,-108.6"/>
<text xml:space="preserve" text-anchor="middle" x="137.39" y="-93.23" font-family="Helvetica,sans-Serif" font-size="10.00">PREADY = 1</text>
<text xml:space="preserve" text-anchor="middle" x="137.39" y="-81.98" font-family="Helvetica,sans-Serif" font-size="10.00">and transfer</text>
</g>
<!-- ACCESS&#45;&gt;ACCESS -->
<g id="edge4" class="edge">
<title>ACCESS&#45;&gt;ACCESS</title>
<path fill="none" stroke="black" d="M174.85,-42.1C187.32,-41.02 196.37,-37.36 196.37,-31.11 196.37,-26.91 192.29,-23.88 185.82,-22.02"/>
<polygon fill="black" stroke="black" points="186.79,-18.64 176.34,-20.39 185.6,-25.53 186.79,-18.64"/>
<text xml:space="preserve" text-anchor="middle" x="226" y="-27.24" font-family="Helvetica,sans-Serif" font-size="10.00">PREADY = 0</text>
</g>
</g>
</svg>
